/* XPM */
static char *_bc7d8991b9f490d9561f3fafef597f6CCOinzbJNkw8EXZW[] = {
/* columns rows colors chars-per-pixel */
"32 32 159 2 ",
"   c None",
".  c black",
"X  c #24262F",
"o  c #262831",
"O  c #631037",
"+  c #005032",
"@  c #5D3E66",
"#  c #295759",
"$  c #2A6667",
"%  c #396D74",
"&  c #544E52",
"*  c #54535E",
"=  c #5C466B",
"-  c #5A5472",
";  c #5C5B78",
":  c #694861",
">  c #695463",
",  c #58677D",
"<  c #58697E",
"1  c #48757A",
"2  c #626262",
"3  c #696674",
"4  c #7D647E",
"5  c #971854",
"6  c #A71B5D",
"7  c #AB1B5F",
"8  c #8A2154",
"9  c #B61D65",
"0  c #923861",
"q  c #B22967",
"w  c #AF316A",
"e  c #885069",
"r  c #945F7C",
"t  c #886062",
"y  c #5E6E8C",
"u  c #576E81",
"i  c #567485",
"p  c #557A89",
"a  c #5E7C98",
"s  c #85718C",
"d  c #857691",
"f  c #A96886",
"g  c #39898B",
"h  c #3B8F93",
"j  c #3F989B",
"k  c #00B9B9",
"l  c #5F839F",
"z  c #528E99",
"x  c #528A95",
"c  c #54909E",
"v  c #5F86A1",
"b  c #5F8FAA",
"n  c #4D9BA2",
"m  c #4499A4",
"M  c #519AA5",
"N  c #5F91AC",
"B  c #559FAE",
"V  c #5F96B1",
"C  c #6893AA",
"Z  c #609BB6",
"A  c #47ACAF",
"S  c #47A5AA",
"D  c #5AA7A8",
"F  c #4BAEB3",
"G  c #48A4B1",
"H  c #55A9B8",
"J  c #4CB5BC",
"K  c #49B0B6",
"L  c #58B5BE",
"P  c #63ADAE",
"I  c #68B3B7",
"U  c #76B7B9",
"Y  c #76B7B8",
"T  c #5EAAC0",
"R  c #4EB9C2",
"E  c #5AB2C7",
"W  c #51BDCA",
"Q  c #5AB9CA",
"!  c #57BBD1",
"~  c #60ADC7",
"^  c #61B1CB",
"/  c #61B7D1",
"(  c #61BBD6",
")  c #00C5C5",
"_  c #00DCDC",
"`  c #00ECEC",
"'  c #53C1CF",
"]  c #54C5D4",
"[  c #56C9D9",
"{  c #58CCDF",
"}  c #5DC4DB",
"|  c #61C2DC",
" . c #7BCBD8",
".. c #5ACEE1",
"X. c #5BD0E5",
"o. c #5ED6ED",
"O. c #5FD8EF",
"+. c #5FD9F1",
"@. c #62C9E3",
"#. c #62CAE5",
"$. c #65D2E9",
"%. c #61DCF5",
"&. c #63DEF9",
"*. c #62D7F2",
"=. c #7ADCF2",
"-. c #63E0FB",
";. c #79E2FB",
":. c #68FEFE",
">. c #96819B",
",. c #929292",
"<. c #9F9B97",
"1. c #B59499",
"2. c #BF9DA4",
"3. c #87B2B3",
"4. c #99B6B7",
"5. c #BBA3A1",
"6. c #A9B7B8",
"7. c #C99D9C",
"8. c #FFAB8E",
"9. c #C9B3AF",
"0. c #C9BAB9",
"q. c #D4C3BF",
"w. c #FFC7B1",
"e. c #8FBFC0",
"r. c #AABDC1",
"t. c #83C7D0",
"y. c #9DD0D6",
"u. c #B8CFCF",
"i. c #A5D6DD",
"p. c #B9D1D4",
"a. c #9EDDEA",
"s. c #8CE2F7",
"d. c #B8E9F5",
"f. c #C9CBCC",
"g. c #C1C7C6",
"h. c #DAC9C6",
"j. c #D7CCCA",
"k. c #D9C9C8",
"l. c #C9D4D3",
"z. c #D6D9DA",
"x. c #E3CDCB",
"c. c #E7D0CF",
"v. c #ECDFDC",
"b. c #E7D5D0",
"n. c #FCD9D6",
"m. c #F1DDDB",
"M. c #F9DFDD",
"N. c #DEE0DF",
"B. c #FFE3D4",
"V. c #D3E3E4",
"C. c #DAFEFE",
"Z. c #EDE8E6",
"A. c #E8E4E3",
"S. c #F3E5E3",
"D. c #F4EAE7",
"F. c #FCE8E5",
"G. c #F9EBE8",
"H. c #FEF1EE",
"J. c #FEFBFA",
/* pixels */
") ) ) ) ) ) ) ) )                                               ",
") C.C.C.C.C.C.C.C.)                                 )   )       ",
") C.:.:.:.:.:.:.:.` )                             ) ` ) ` )     ",
") C.:.:.:.:.:.:.:.` )                             ) ` ` ` )     ",
") C.:.:.:.:.:.:.` ` )                               ) ` )       ",
") C.:.:.:.` ` ` ` )                                   )         ",
") C.:.:.:.` ) ) ) +     + + + + + + + + +     + +               ",
") C.:.:.:.` )   + 9 + + v ~ #.-.-.-.-.( ~ + + 6 * +             ",
") C.:.:.` ` ) + 6 > 1 v *.-.-.-.-.-.+.&.&.Q 8 e H + +           ",
"  ) ` ` ` ) + O 6 ! W *.&.{ -.o.O.&...+.&.E q g %.@.Z +         ",
"    ) ) )   + 5 d { a.&.] J -.X.J &.&...+.0 s ! R ..&.= +       ",
"            + 7 C ] s.y.4.r.%.X.g. .=.d.{ T w m F J %.^ +       ",
"            + O f ..*.A h.B.i.#.6.c.t.=.] G s s R J ../ +       ",
"            + - m &.W 3.B.H.u...U H.c.I +.h E d n o.F &.v +     ",
"            + / [ %.Q l.D.A.Z. .E 6.5.<.K W j ] A ..K &.Z +     ",
"            + | [ ..Y b.0.& H.Z.Y l.H.& e.G $ j A [ ] &.#.+     ",
"          + N &.X.] P x.& & & H.Z.g.& & & A # g x B &.-.} +     ",
"          + N &.-.J Y D.j.M j.H.H.v.j.M z.P % # @ a -.&.H +     ",
"          + C &.-.X.D 1.z.f.f.H.H.H.p.p.J.z.G o + a -...< +     ",
"            + @.-.+.L 0.Z.V.N.m.F.S.A.A.S.q.r X + V -.F , +     ",
"            + | -.+.z 1.n.v.H.q.9.v.F.n.7.3 + + + @...z +       ",
"            + y -.E + + 2.k.h.h.x.h.9.t : +     + ..] z +       ",
"            + y -.M +   + . . . . . . . .       + @.] S , +     ",
"            + y -.M +   . B.w.. _ _ . . B.. .   + @.o.F < +     ",
"            + V -.c + . B.w.. . _ k . ,.. w.8.. + v &.{ n +     ",
"            + | X.; + . . . ,.. _ k . ,.,.. . . + a &.%.J p +   ",
"            . . [ - + . 2 . . . k k . ,.. 2 2 .   + ^ &.&.R i + ",
"          . _ _ . u + . . _ _ . k k . ,.. 2 2 .   + c *.&.W A < ",
"          . _ _ . . . . . _ _ . . . . . . 2 2 2 . + = ' *.A A z ",
"          . k k . ,.,.2 . k k . ,.,.2 2 . . . . .   + n W u n z ",
"          . k k . 2 2 2 . k k . 2 2 2 2 . B.w.8..   + i n + + + ",
"            . . . . . . . . . . . . . . . . . .       + z +     "
};
